# xmcd
#
# Track frame offsets: 
#        150
#        18820
#        46624
#        64072
#        84963
#        98601
#        115639
#        127630
#        150961
#        161680
#        176893
#        194004
#        208762
#        229957
#        242709
#        248216
#        263787
#        276127
#        284870
#        302768
#        317199
#
# Disc length: 4403 seconds
#
# Revision: 1
# Processed by: cddbd v1.5.2PL0 Copyright (c) Steve Scherf et al.
# Submitted via: ExactAudioCopyFreeDBPlugin 1.0
#
DISCID=1c113115
DTITLE=Peter LeMarc - Det Finns Inget Bättre {2010 'Starkare Än Ord' B
DTITLE=ox Edition}
DYEAR=1992
DGENRE=Rock
TTITLE0=Tootoolah
TTITLE1=Senast Jag Såg Anglarna
TTITLE2=Det Finns Inget Bättre
TTITLE3=Ge Henne Tid
TTITLE4=Under Din Kjol
TTITLE5=På Andra Sidan Bron
TTITLE6=Ta Med Dej Månen När Du Går
TTITLE7=Anda Till September
TTITLE8=Alskarnas Kors
TTITLE9=Hittegods
TTITLE10=Lycklig Idiot
TTITLE11=Vrå Av Världen
TTITLE12=Vad Ar Du Rädd För?
TTITLE13=Vals I Cement
TTITLE14=Det Finns Inget Bättre (Outro)
TTITLE15=Förloraren (extranummer)
TTITLE16=Lycklig Idiot (akustisk version, extranummer)
TTITLE17=Grand Pallas Hotell (extranummer)
TTITLE18=Skott Från Blå Linjen (extranummer)
TTITLE19=Rik I Regnet (extranummer)
TTITLE20=Vals I Cement (demo, extranummer)
EXTD=
EXTT0=
EXTT1=
EXTT2=
EXTT3=
EXTT4=
EXTT5=
EXTT6=
EXTT7=
EXTT8=
EXTT9=
EXTT10=
EXTT11=
EXTT12=
EXTT13=
EXTT14=
EXTT15=
EXTT16=
EXTT17=
EXTT18=
EXTT19=
EXTT20=
PLAYORDER=
